<svg viewBox="-40,-160,842,275" style="font: 10px sans-serif; user-select: none;" xmlns="http://www.w3.org/2000/svg" xmlns:xlink="http://www.w3.org/1999/xlink"><g fill="none" stroke="#555" stroke-opacity="0.4" stroke-width="1.5"><path d="M0,0C70.16666666666667,0,70.16666666666667,-105,140.33333333333334,-105"/><path d="M0,0C70.16666666666667,0,70.16666666666667,-95,140.33333333333334,-95"/><path d="M0,0C70.16666666666667,0,70.16666666666667,-50,140.33333333333334,-50"/><path d="M0,0C70.16666666666667,0,70.16666666666667,-5,140.33333333333334,-5"/><path d="M0,0C70.16666666666667,0,70.16666666666667,30,140.33333333333334,30"/><path d="M0,0C70.16666666666667,0,70.16666666666667,65,140.33333333333334,65"/><path d="M0,0C70.16666666666667,0,70.16666666666667,75,140.33333333333334,75"/><path d="M0,0C70.16666666666667,0,70.16666666666667,85,140.33333333333334,85"/><path d="M0,0C70.16666666666667,0,70.16666666666667,95,140.33333333333334,95"/><path d="M0,0C70.16666666666667,0,70.16666666666667,105,140.33333333333334,105"/><path d="M140.33333333333334,-95C210.5,-95,210.5,-150,280.6666666666667,-150"/><path d="M140.33333333333334,-95C210.5,-95,210.5,-140,280.6666666666667,-140"/><path d="M140.33333333333334,-95C210.5,-95,210.5,-130,280.6666666666667,-130"/><path d="M140.33333333333334,-95C210.5,-95,210.5,-120,280.6666666666667,-120"/><path d="M140.33333333333334,-95C210.5,-95,210.5,-110,280.6666666666667,-110"/><path d="M140.33333333333334,-95C210.5,-95,210.5,-100,280.6666666666667,-100"/><path d="M140.33333333333334,-95C210.5,-95,210.5,-90,280.6666666666667,-90"/><path d="M140.33333333333334,-95C210.5,-95,210.5,-80,280.6666666666667,-80"/><path d="M140.33333333333334,-95C210.5,-95,210.5,-70,280.6666666666667,-70"/><path d="M140.33333333333334,-95C210.5,-95,210.5,-60,280.6666666666667,-60"/><path d="M140.33333333333334,-95C210.5,-95,210.5,-50,280.6666666666667,-50"/><path d="M140.33333333333334,-95C210.5,-95,210.5,-40,280.6666666666667,-40"/><path d="M140.33333333333334,-5C210.5,-5,210.5,-20,280.6666666666667,-20"/><path d="M140.33333333333334,-5C210.5,-5,210.5,-10,280.6666666666667,-10"/><path d="M140.33333333333334,-5C210.5,-5,210.5,0,280.6666666666667,0"/><path d="M140.33333333333334,-5C210.5,-5,210.5,10,280.6666666666667,10"/><path d="M140.33333333333334,65C210.5,65,210.5,30,280.6666666666667,30"/><path d="M140.33333333333334,65C210.5,65,210.5,40,280.6666666666667,40"/><path d="M140.33333333333334,65C210.5,65,210.5,50,280.6666666666667,50"/><path d="M140.33333333333334,65C210.5,65,210.5,60,280.6666666666667,60"/><path d="M140.33333333333334,65C210.5,65,210.5,70,280.6666666666667,70"/><path d="M140.33333333333334,65C210.5,65,210.5,80,280.6666666666667,80"/><path d="M140.33333333333334,65C210.5,65,210.5,90,280.6666666666667,90"/><path d="M140.33333333333334,65C210.5,65,210.5,100,280.6666666666667,100"/></g><g cursor="pointer" pointer-events="all"><g transform="translate(280.6666564941406, 100)" fill-opacity="1" stroke-opacity="1"><text dy="0.31em" x="6" text-anchor="start" stroke-linejoin="round" stroke-width="3" stroke="white">SpringForce</text><circle r="2.5" fill="#999" stroke-width="10"/><text dy="0.31em" x="6" text-anchor="start">SpringForce</text></g><g transform="translate(280.6666564941406, 90)" fill-opacity="1" stroke-opacity="1"><text dy="0.31em" x="6" text-anchor="start" stroke-linejoin="round" stroke-width="3" stroke="white">Spring</text><circle r="2.5" fill="#999" stroke-width="10"/><text dy="0.31em" x="6" text-anchor="start">Spring</text></g><g transform="translate(280.6666564941406, 80)" fill-opacity="1" stroke-opacity="1"><text dy="0.31em" x="6" text-anchor="start" stroke-linejoin="round" stroke-width="3" stroke="white">Simulation</text><circle r="2.5" fill="#999" stroke-width="10"/><text dy="0.31em" x="6" text-anchor="start">Simulation</text></g><g transform="translate(280.6666564941406, 70)" fill-opacity="1" stroke-opacity="1"><text dy="0.31em" x="6" text-anchor="start" stroke-linejoin="round" stroke-width="3" stroke="white">Particle</text><circle r="2.5" fill="#999" stroke-width="10"/><text dy="0.31em" x="6" text-anchor="start">Particle</text></g><g transform="translate(280.6666564941406, 60)" fill-opacity="1" stroke-opacity="1"><text dy="0.31em" x="6" text-anchor="start" stroke-linejoin="round" stroke-width="3" stroke="white">NBodyForce</text><circle r="2.5" fill="#999" stroke-width="10"/><text dy="0.31em" x="6" text-anchor="start">NBodyForce</text></g><g transform="translate(280.6666564941406, 50)" fill-opacity="1" stroke-opacity="1"><text dy="0.31em" x="6" text-anchor="start" stroke-linejoin="round" stroke-width="3" stroke="white">IForce</text><circle r="2.5" fill="#999" stroke-width="10"/><text dy="0.31em" x="6" text-anchor="start">IForce</text></g><g transform="translate(280.6666564941406, 40)" fill-opacity="1" stroke-opacity="1"><text dy="0.31em" x="6" text-anchor="start" stroke-linejoin="round" stroke-width="3" stroke="white">GravityForce</text><circle r="2.5" fill="#999" stroke-width="10"/><text dy="0.31em" x="6" text-anchor="start">GravityForce</text></g><g transform="translate(280.6666564941406, 30)" fill-opacity="1" stroke-opacity="1"><text dy="0.31em" x="6" text-anchor="start" stroke-linejoin="round" stroke-width="3" stroke="white">DragForce</text><circle r="2.5" fill="#999" stroke-width="10"/><text dy="0.31em" x="6" text-anchor="start">DragForce</text></g><g transform="translate(280.6666564941406, 10)" fill-opacity="1" stroke-opacity="1"><text dy="0.31em" x="6" text-anchor="start" stroke-linejoin="round" stroke-width="3" stroke="white">TextSprite</text><circle r="2.5" fill="#999" stroke-width="10"/><text dy="0.31em" x="6" text-anchor="start">TextSprite</text></g><g transform="translate(280.6666564941406, 0)" fill-opacity="1" stroke-opacity="1"><text dy="0.31em" x="6" text-anchor="start" stroke-linejoin="round" stroke-width="3" stroke="white">RectSprite</text><circle r="2.5" fill="#999" stroke-width="10"/><text dy="0.31em" x="6" text-anchor="start">RectSprite</text></g><g transform="translate(280.6666564941406, -10)" fill-opacity="1" stroke-opacity="1"><text dy="0.31em" x="6" text-anchor="start" stroke-linejoin="round" stroke-width="3" stroke="white">LineSprite</text><circle r="2.5" fill="#999" stroke-width="10"/><text dy="0.31em" x="6" text-anchor="start">LineSprite</text></g><g transform="translate(280.6666564941406, -20)" fill-opacity="1" stroke-opacity="1"><text dy="0.31em" x="6" text-anchor="start" stroke-linejoin="round" stroke-width="3" stroke="white">DirtySprite</text><circle r="2.5" fill="#999" stroke-width="10"/><text dy="0.31em" x="6" text-anchor="start">DirtySprite</text></g><g transform="translate(280.6666564941406, -40)" fill-opacity="1" stroke-opacity="1"><text dy="0.31em" x="6" text-anchor="start" stroke-linejoin="round" stroke-width="3" stroke="white">Tween</text><circle r="2.5" fill="#999" stroke-width="10"/><text dy="0.31em" x="6" text-anchor="start">Tween</text></g><g transform="translate(280.6666564941406, -50)" fill-opacity="1" stroke-opacity="1"><text dy="0.31em" x="6" text-anchor="start" stroke-linejoin="round" stroke-width="3" stroke="white">TransitionEvent</text><circle r="2.5" fill="#999" stroke-width="10"/><text dy="0.31em" x="6" text-anchor="start">TransitionEvent</text></g><g transform="translate(280.6666564941406, -60)" fill-opacity="1" stroke-opacity="1"><text dy="0.31em" x="6" text-anchor="start" stroke-linejoin="round" stroke-width="3" stroke="white">Transitioner</text><circle r="2.5" fill="#999" stroke-width="10"/><text dy="0.31em" x="6" text-anchor="start">Transitioner</text></g><g transform="translate(280.6666564941406, -70)" fill-opacity="1" stroke-opacity="1"><text dy="0.31em" x="6" text-anchor="start" stroke-linejoin="round" stroke-width="3" stroke="white">Transition</text><circle r="2.5" fill="#999" stroke-width="10"/><text dy="0.31em" x="6" text-anchor="start">Transition</text></g><g transform="translate(280.6666564941406, -80)" fill-opacity="1" stroke-opacity="1"><text dy="0.31em" x="6" text-anchor="start" stroke-linejoin="round" stroke-width="3" stroke="white">Sequence</text><circle r="2.5" fill="#999" stroke-width="10"/><text dy="0.31em" x="6" text-anchor="start">Sequence</text></g><g transform="translate(280.6666564941406, -90)" fill-opacity="1" stroke-opacity="1"><text dy="0.31em" x="6" text-anchor="start" stroke-linejoin="round" stroke-width="3" stroke="white">Scheduler</text><circle r="2.5" fill="#999" stroke-width="10"/><text dy="0.31em" x="6" text-anchor="start">Scheduler</text></g><g transform="translate(280.6666564941406, -100)" fill-opacity="1" stroke-opacity="1"><text dy="0.31em" x="6" text-anchor="start" stroke-linejoin="round" stroke-width="3" stroke="white">Pause</text><circle r="2.5" fill="#999" stroke-width="10"/><text dy="0.31em" x="6" text-anchor="start">Pause</text></g><g transform="translate(280.6666564941406, -110)" fill-opacity="1" stroke-opacity="1"><text dy="0.31em" x="6" text-anchor="start" stroke-linejoin="round" stroke-width="3" stroke="white">Parallel</text><circle r="2.5" fill="#999" stroke-width="10"/><text dy="0.31em" x="6" text-anchor="start">Parallel</text></g><g transform="translate(280.6666564941406, -120)" fill-opacity="1" stroke-opacity="1"><text dy="0.31em" x="6" text-anchor="start" stroke-linejoin="round" stroke-width="3" stroke="white">ISchedulable</text><circle r="2.5" fill="#999" stroke-width="10"/><text dy="0.31em" x="6" text-anchor="start">ISchedulable</text></g><g transform="translate(280.6666564941406, -130)" fill-opacity="1" stroke-opacity="1"><text dy="0.31em" x="-6" text-anchor="end" stroke-linejoin="round" stroke-width="3" stroke="white">interpolate</text><circle r="2.5" fill="#555" stroke-width="10"/><text dy="0.31em" x="-6" text-anchor="end">interpolate</text></g><g transform="translate(280.6666564941406, -140)" fill-opacity="1" stroke-opacity="1"><text dy="0.31em" x="6" text-anchor="start" stroke-linejoin="round" stroke-width="3" stroke="white">FunctionSequence</text><circle r="2.5" fill="#999" stroke-width="10"/><text dy="0.31em" x="6" text-anchor="start">FunctionSequence</text></g><g transform="translate(280.6666564941406, -150)" fill-opacity="1" stroke-opacity="1"><text dy="0.31em" x="6" text-anchor="start" stroke-linejoin="round" stroke-width="3" stroke="white">Easing</text><circle r="2.5" fill="#999" stroke-width="10"/><text dy="0.31em" x="6" text-anchor="start">Easing</text></g><g transform="translate(140.3333282470703, 105)" fill-opacity="1" stroke-opacity="1"><text dy="0.31em" x="-6" text-anchor="end" stroke-linejoin="round" stroke-width="3" stroke="white">vis</text><circle r="2.5" fill="#555" stroke-width="10"/><text dy="0.31em" x="-6" text-anchor="end">vis</text></g><g transform="translate(140.3333282470703, 95)" fill-opacity="1" stroke-opacity="1"><text dy="0.31em" x="-6" text-anchor="end" stroke-linejoin="round" stroke-width="3" stroke="white">util</text><circle r="2.5" fill="#555" stroke-width="10"/><text dy="0.31em" x="-6" text-anchor="end">util</text></g><g transform="translate(140.3333282470703, 85)" fill-opacity="1" stroke-opacity="1"><text dy="0.31em" x="-6" text-anchor="end" stroke-linejoin="round" stroke-width="3" stroke="white">scale</text><circle r="2.5" fill="#555" stroke-width="10"/><text dy="0.31em" x="-6" text-anchor="end">scale</text></g><g transform="translate(140.3333282470703, 75)" fill-opacity="1" stroke-opacity="1"><text dy="0.31em" x="-6" text-anchor="end" stroke-linejoin="round" stroke-width="3" stroke="white">query</text><circle r="2.5" fill="#555" stroke-width="10"/><text dy="0.31em" x="-6" text-anchor="end">query</text></g><g transform="translate(140.3333282470703, 65)" fill-opacity="1" stroke-opacity="1"><text dy="0.31em" x="-6" text-anchor="end" stroke-linejoin="round" stroke-width="3" stroke="white">physics</text><circle r="2.5" fill="#555" stroke-width="10"/><text dy="0.31em" x="-6" text-anchor="end">physics</text></g><g transform="translate(140.3333282470703, 30)" fill-opacity="1" stroke-opacity="1"><text dy="0.31em" x="-6" text-anchor="end" stroke-linejoin="round" stroke-width="3" stroke="white">flex</text><circle r="2.5" fill="#555" stroke-width="10"/><text dy="0.31em" x="-6" text-anchor="end">flex</text></g><g transform="translate(140.3333282470703, -5)" fill-opacity="1" stroke-opacity="1"><text dy="0.31em" x="-6" text-anchor="end" stroke-linejoin="round" stroke-width="3" stroke="white">display</text><circle r="2.5" fill="#555" stroke-width="10"/><text dy="0.31em" x="-6" text-anchor="end">display</text></g><g transform="translate(140.3333282470703, -50)" fill-opacity="1" stroke-opacity="1"><text dy="0.31em" x="-6" text-anchor="end" stroke-linejoin="round" stroke-width="3" stroke="white">data</text><circle r="2.5" fill="#555" stroke-width="10"/><text dy="0.31em" x="-6" text-anchor="end">data</text></g><g transform="translate(140.3333282470703, -95)" fill-opacity="1" stroke-opacity="1"><text dy="0.31em" x="-6" text-anchor="end" stroke-linejoin="round" stroke-width="3" stroke="white">animate</text><circle r="2.5" fill="#555" stroke-width="10"/><text dy="0.31em" x="-6" text-anchor="end">animate</text></g><g transform="translate(140.3333282470703, -105)" fill-opacity="1" stroke-opacity="1"><text dy="0.31em" x="-6" text-anchor="end" stroke-linejoin="round" stroke-width="3" stroke="white">analytics</text><circle r="2.5" fill="#555" stroke-width="10"/><text dy="0.31em" x="-6" text-anchor="end">analytics</text></g><g transform="translate(0, 0)" fill-opacity="1" stroke-opacity="1"><text dy="0.31em" x="-6" text-anchor="end" stroke-linejoin="round" stroke-width="3" stroke="white">flare</text><circle r="2.5" fill="#555" stroke-width="10"/><text dy="0.31em" x="-6" text-anchor="end">flare</text></g></g></svg>